<?xml version="1.0" encoding="UTF-8" standalone="no"?>
<!-- Created with Inkscape (http://www.inkscape.org/) -->
<svg
   xmlns:dc="http://purl.org/dc/elements/1.1/"
   xmlns:cc="http://web.resource.org/cc/"
   xmlns:rdf="http://www.w3.org/1999/02/22-rdf-syntax-ns#"
   xmlns:svg="http://www.w3.org/2000/svg"
   xmlns="http://www.w3.org/2000/svg"
   xmlns:sodipodi="http://sodipodi.sourceforge.net/DTD/sodipodi-0.dtd"
   xmlns:inkscape="http://www.inkscape.org/namespaces/inkscape"
   width="236.82919"
   height="196.88521"
   id="svg2"
   sodipodi:version="0.32"
   inkscape:version="0.45"
   sodipodi:docbase="/home/frederik/bilder/clipart_freedo"
   sodipodi:docname="silhouette_plane.svg"
   inkscape:output_extension="org.inkscape.output.svg.inkscape"
   version="1.0"
   inkscape:export-filename="/home/frederik/bilder/Bearbeitet/Icon-Flugzeug.png"
   inkscape:export-xdpi="40.028378"
   inkscape:export-ydpi="40.028378"
   sodipodi:modified="true">
  <defs
     id="defs4" />
  <sodipodi:namedview
     id="base"
     pagecolor="#ffffff"
     bordercolor="#666666"
     borderopacity="1.0"
     inkscape:pageopacity="0.0"
     inkscape:pageshadow="2"
     inkscape:zoom="0.69842875"
     inkscape:cx="372.04724"
     inkscape:cy="124.56532"
     inkscape:document-units="px"
     inkscape:current-layer="layer1"
     inkscape:window-width="1280"
     inkscape:window-height="951"
     inkscape:window-x="0"
     inkscape:window-y="24" />
  <metadata
     id="metadata7">
    <rdf:RDF>
      <cc:Work
         rdf:about="">
        <dc:format>image/svg+xml</dc:format>
        <dc:type
           rdf:resource="http://purl.org/dc/dcmitype/StillImage" />
        <dc:title>Silhouette of a Plane</dc:title>
        <dc:date>2007-02-07</dc:date>
        <dc:creator>
          <cc:Agent>
            <dc:title>Frederik Elwert</dc:title>
          </cc:Agent>
        </dc:creator>
        <dc:subject>
          <rdf:Bag>
            <rdf:li>plane</rdf:li>
            <rdf:li>aircraft</rdf:li>
            <rdf:li>airplane</rdf:li>
            <rdf:li>silhouette</rdf:li>
          </rdf:Bag>
        </dc:subject>
        <cc:license
           rdf:resource="http://web.resource.org/cc/PublicDomain" />
      </cc:Work>
      <cc:License
         rdf:about="http://web.resource.org/cc/PublicDomain">
        <cc:permits
           rdf:resource="http://web.resource.org/cc/Reproduction" />
        <cc:permits
           rdf:resource="http://web.resource.org/cc/Distribution" />
        <cc:permits
           rdf:resource="http://web.resource.org/cc/DerivativeWorks" />
      </cc:License>
    </rdf:RDF>
  </metadata>
  <g
     inkscape:label="Ebene 1"
     inkscape:groupmode="layer"
     id="layer1"
     transform="translate(-255.56337,-288.67172)">
    <g
       id="g7123"
       transform="matrix(-0.8078906,0.5893325,-0.5893325,-0.8078906,884.30309,418.71191)">
      <path
         d="M 262.11414,340.30232 C 264.08189,336.8996 294.50099,319.90497 311.06652,307.43429 C 326.62639,295.72068 328.54952,290.65062 328.54952,290.65062 C 328.54952,290.65062 318.05972,278.06286 313.8638,272.11865 C 309.66788,266.17443 311.41618,255.33497 315.6121,251.83837 L 311.22371,244.5778 C 308.23814,239.63818 313.29244,235.17114 318.81817,240.8773 L 324.3536,246.59348 C 334.49374,243.7962 341.83659,250.09008 345.68285,253.58667 C 349.52911,257.08327 358.0806,266.646 360.36857,266.87375 C 362.4701,267.08294 371.2868,261.91153 370.85836,260.23021 C 368.34088,250.35091 371.55768,244.84518 378.20122,251.13906 C 385.57996,258.12945 390.08965,265.12545 390.08965,265.12545 C 390.08965,265.12545 444.14059,240.99714 445.33591,242.74722 C 449.79086,249.26977 463.66096,266.44552 466.66516,268.97171 C 470.68502,272.35196 417.52907,309.11789 399.53047,325.61661 C 398.48149,326.57817 396.8206,336.54348 398.13183,338.55402 C 408.49413,354.44286 425.808,383.5092 435.54544,392.40164 C 441.27287,397.63205 458.99586,390.93601 462.46925,392.05198 C 466.5752,393.37118 479.41537,406.26224 479.95224,407.43701 C 480.90321,409.51788 465.19547,419.87794 462.81891,422.12273 C 461.19874,423.65307 456.07853,418.69489 454.42707,421.07375 C 453.08574,423.00589 454.86448,439.06444 453.72775,440.30504 C 446.58702,448.09827 428.07063,456.68554 420.51006,458.13769 C 418.17796,458.58561 419.91445,442.97934 417.71278,442.05334 C 416.27136,441.44709 406.57818,445.20937 405.12503,444.1513 C 402.98859,442.59571 388.89378,428.79105 389.39033,426.31865 C 390.27422,421.91762 415.0464,407.36399 412.81754,403.94042 C 398.05087,381.25861 378.89615,367.01653 363.16584,343.44926 C 340.75409,348.16404 283.0561,367.43289 281.6951,365.82749 C 279.0377,362.6929 261.26445,341.77162 262.11414,340.30232 z M 367.0121,273.86695 L 378.55088,270.72001 C 378.55088,270.72001 377.15224,265.82477 375.40394,265.47511 C 373.65564,265.12545 365.61346,270.02069 367.0121,273.86695 z "
         style="fill:#000000;fill-opacity:1;fill-rule:evenodd;stroke:#000000;stroke-width:1px;stroke-linecap:butt;stroke-linejoin:miter;stroke-opacity:1"
         id="path2241" />
    </g>
    <path
       sodipodi:type="inkscape:offset"
       inkscape:radius="-27.125067"
       inkscape:original="M 372.75 179.5625 C 250.29404 179.5625 150.9375 278.91904 150.9375 401.375 C 150.9375 523.83096 250.29404 623.21877 372.75 623.21875 C 495.20596 623.21875 594.59373 523.83096 594.59375 401.375 C 594.59375 278.91904 495.20596 179.5625 372.75 179.5625 z "
       style="font-size:64px;font-style:normal;font-variant:normal;font-weight:normal;font-stretch:normal;text-align:center;line-height:100%;writing-mode:lr-tb;text-anchor:middle;opacity:1;color:#000000;fill:none;fill-opacity:1;fill-rule:evenodd;stroke:none;stroke-width:6;stroke-linecap:butt;stroke-linejoin:miter;marker:none;marker-start:none;marker-mid:none;marker-end:none;stroke-miterlimit:4;stroke-dasharray:none;stroke-dashoffset:0;stroke-opacity:1;visibility:visible;display:inline;overflow:visible;enable-background:accumulate;font-family:Bitstream Vera Sans"
       id="path6149"
       d="M 372.75,206.6875 C 264.96627,206.6875 178.0625,293.59127 178.0625,401.375 C 178.0625,509.15873 264.97089,596.09377 372.75,596.09375 C 480.52912,596.09375 567.46873,509.15412 567.46875,401.375 C 567.46875,293.59588 480.53373,206.6875 372.75,206.6875 z " />
  </g>
</svg>
